<svg width="26" height="26" viewBox="0 0 26 26" xmlns="http://www.w3.org/2000/svg">
<path d="M13 21.9375C13 21.9375 2.84375 16.25 2.84375 9.34376C2.84396 8.12311 3.26691 6.94021 4.04071 5.99617C4.81451 5.05213 5.89138 4.40522 7.08824 4.16543C8.2851 3.92564 9.52807 4.10777 10.6058 4.68085C11.6836 5.25394 12.5296 6.1826 13 7.30895L13 7.30896C13.4704 6.18261 14.3164 5.25394 15.3942 4.68086C16.4719 4.10777 17.7149 3.92564 18.9118 4.16543C20.1086 4.40522 21.1855 5.05213 21.9593 5.99617C22.7331 6.94021 23.156 8.12311 23.1562 9.34376C23.1563 16.25 13 21.9375 13 21.9375Z" stroke="#3F3F3F" stroke-opacity="0.8" stroke-width="2" stroke-linecap="round" stroke-linejoin="round"/>
</svg>
