<svg width="18" height="20" viewBox="0 0 18 20" fill="none" xmlns="http://www.w3.org/2000/svg">
<path d="M9 10.5938C10.2426 10.5938 11.25 9.53043 11.25 8.21875C11.25 6.90707 10.2426 5.84375 9 5.84375C7.75736 5.84375 6.75 6.90707 6.75 8.21875C6.75 9.53043 7.75736 10.5938 9 10.5938Z" stroke-width="0.5" stroke-linecap="round" stroke-linejoin="round"/>
<path d="M14.625 8.21875C14.625 13.5625 9 17.7188 9 17.7188C9 17.7188 3.375 13.5625 3.375 8.21875C3.375 6.64403 3.96763 5.1338 5.02252 4.0203C6.07742 2.90681 7.50816 2.28125 9 2.28125C10.4918 2.28125 11.9226 2.90681 12.9775 4.0203C14.0324 5.1338 14.625 6.64403 14.625 8.21875V8.21875Z" stroke-width="0.5" stroke-linecap="round" stroke-linejoin="round"/>
</svg>
