<svg width="16" height="16" viewBox="0 0 16 16" fill="none" xmlns="http://www.w3.org/2000/svg">
<path d="M6 14H10" stroke="black" stroke-linecap="round" stroke-linejoin="round"/>
<path d="M3.51286 6.49996C3.51203 5.90697 3.62858 5.31967 3.85578 4.77193C4.08299 4.22419 4.41636 3.72683 4.83668 3.30853C5.257 2.89023 5.75595 2.55926 6.30478 2.33469C6.85361 2.11013 7.44146 1.9964 8.03444 2.00009C10.5088 2.01848 12.488 4.07517 12.488 6.55645V6.99996C12.488 9.23844 12.9563 10.5374 13.3688 11.2473C13.4132 11.3232 13.4369 11.4094 13.4373 11.4974C13.4378 11.5853 13.4151 11.6718 13.3715 11.7481C13.3278 11.8244 13.2649 11.8879 13.1889 11.9321C13.1129 11.9763 13.0266 11.9997 12.9387 12H3.06164C2.97372 11.9997 2.88741 11.9763 2.81142 11.9321C2.73543 11.8879 2.67245 11.8244 2.62884 11.748C2.58522 11.6717 2.56251 11.5852 2.563 11.4973C2.56348 11.4093 2.58715 11.3231 2.6316 11.2472C3.04431 10.5373 3.51285 9.23832 3.51285 6.99996L3.51286 6.49996Z" stroke="black" stroke-linecap="round" stroke-linejoin="round"/>
</svg>
