<svg width="32" height="32" viewBox="0 0 32 32" fill="none" xmlns="http://www.w3.org/2000/svg">
<path d="M16 28C22.6274 28 28 22.6274 28 16C28 9.37258 22.6274 4 16 4C9.37258 4 4 9.37258 4 16C4 22.6274 9.37258 28 16 28Z" stroke="black" stroke-width="1" stroke-miterlimit="10"/>
<path d="M18.5 15C18.5 16.3807 17.3807 17.5 16 17.5C14.6193 17.5 13.5 16.3807 13.5 15C13.5 13.6193 14.6193 12.5 16 12.5C17.3807 12.5 18.5 13.6193 18.5 15Z" stroke="black" stroke-width="5" stroke-miterlimit="10"/>
<mask id="path-3-inside-1_302_3709" fill="white">
<path d="M7.97485 24.9218C8.72812 23.4408 9.8765 22.1971 11.2929 21.3284C12.7093 20.4598 14.3384 20 16 20C17.6615 20 19.2906 20.4598 20.707 21.3284C22.1234 22.1971 23.2718 23.4407 24.0251 24.9217"/>
</mask>
<path d="M3.51819 22.655C2.2663 25.1163 3.24675 28.1265 5.7081 29.3784C8.16944 30.6303 11.1796 29.6499 12.4315 27.1885L3.51819 22.655ZM19.5684 27.1885C20.8203 29.6498 23.8305 30.6303 26.2919 29.3784C28.7532 28.1265 29.7336 25.1163 28.4817 22.6549L19.5684 27.1885ZM12.4315 27.1885C12.7665 26.53 13.2771 25.977 13.9069 25.5907L8.67886 17.0662C6.4759 18.4173 4.68977 20.3516 3.51819 22.655L12.4315 27.1885ZM13.9069 25.5907C14.5367 25.2044 15.2611 25 16 25L15.9999 15C13.4157 15 10.8818 15.7151 8.67886 17.0662L13.9069 25.5907ZM16 25C16.7388 25 17.4632 25.2044 18.093 25.5907L23.321 17.0662C21.1181 15.7151 18.5842 15 15.9999 15L16 25ZM18.093 25.5907C18.7228 25.977 19.2335 26.53 19.5684 27.1885L28.4817 22.6549C27.3101 20.3515 25.524 18.4172 23.321 17.0662L18.093 25.5907Z" fill="black" mask="url(#path-3-inside-1_302_3709)"/>
<mask id="path-5-inside-2_302_3709" fill="white">
<path d="M23.5 24.5C22.843 25.7036 21.3413 26.2144 20.1058 26.9203C18.8703 27.6263 17.4493 28 16 28C14.5507 28 13.1297 27.6263 11.8942 26.9204C10.6587 26.2144 9.65705 25.7036 9 24.5"/>
</mask>
<path d="M27.8887 26.8957C29.2118 24.4719 28.3195 21.4344 25.8957 20.1113C23.4719 18.7882 20.4344 19.6805 19.1113 22.1043L27.8887 26.8957ZM13.3887 22.1043C12.0655 19.6805 9.02805 18.7882 6.60426 20.1113C4.18046 21.4345 3.2882 24.4719 4.61133 26.8957L13.3887 22.1043ZM19.1113 22.1043C19.4127 21.5522 19.7698 21.4163 19.4515 21.6068C19.3065 21.6936 19.1202 21.7924 18.7898 21.9612C18.5076 22.1054 18.0593 22.331 17.6251 22.5791L22.5865 31.2616C22.77 31.1567 22.9728 31.0537 23.3401 30.866C23.6593 30.7029 24.1211 30.4664 24.5881 30.1867C25.4938 29.6445 26.9303 28.6514 27.8887 26.8957L19.1113 22.1043ZM17.6251 22.5791C17.1597 22.8451 16.5961 23 16 23L16 33C18.3026 33 20.581 32.4075 22.5865 31.2616L17.6251 22.5791ZM16 23C15.4039 23 14.8403 22.8451 14.3749 22.5791L9.41353 31.2616C11.419 32.4076 13.6975 33 16 33L16 23ZM14.3749 22.5791C14.0064 22.3686 13.7998 22.254 13.5768 22.1208C13.3777 22.0019 13.2824 21.9361 13.2362 21.9013C13.1985 21.8729 13.2223 21.8865 13.2701 21.9396C13.3216 21.9968 13.3633 22.0577 13.3887 22.1043L4.61133 26.8957C6.07667 29.58 8.51282 30.7469 9.41353 31.2616L14.3749 22.5791Z" fill="black" mask="url(#path-5-inside-2_302_3709)"/>
</svg>
