<svg width="24" height="24" viewBox="0 0 24 24" fill="none" xmlns="http://www.w3.org/2000/svg">
<path fill-rule="evenodd" clip-rule="evenodd" d="M11.3069 18.6277C9.53807 17.1236 8.41379 14.8794 8.41379 12.3732C8.41379 9.8709 9.53458 7.62984 11.2986 6.12571C10.163 5.41247 8.81933 5 7.37931 5C3.30383 5 0 8.30383 0 12.3793C0 16.4548 3.30383 19.7586 7.37931 19.7586C8.82281 19.7586 10.1695 19.3442 11.3069 18.6277ZM12.703 18.634C14.4761 17.1298 15.6034 14.8829 15.6034 12.3732C15.6034 9.86745 14.4796 7.62366 12.7113 6.11949C13.8448 5.41007 15.1849 5 16.6207 5C20.6962 5 24 8.30383 24 12.3793C24 16.4548 20.6962 19.7586 16.6207 19.7586C15.1814 19.7586 13.8383 19.3466 12.703 18.634ZM12.0124 6.61545C13.6973 7.96789 14.7759 10.0446 14.7759 12.3732C14.7759 14.7036 13.6956 16.7817 12.0086 18.134C10.3216 16.7817 9.24138 14.7036 9.24138 12.3732C9.24138 10.0486 10.3163 7.97497 11.9962 6.62237C11.9975 6.62338 11.9987 6.6244 12 6.62542C12.0041 6.62209 12.0083 6.61877 12.0124 6.61545Z" fill="black" fill-opacity="0.7"/>
</svg>
